<svg xmlns="http://www.w3.org/2000/svg" height="800" width="1200" viewBox="-30.730425 -17.371025 266.33035 104.22615"><path clip-rule="evenodd" fill-rule="evenodd" d="M76.0944 20.5814h8.8745L83.836 36.631l5.8534-16.0496h10.3851l-.9441 16.0496 5.4758-16.0496h9.0633L102.718 45.8816H91.9553l1.1329-16.4257h-.1889L87.046 45.8816H76.0944V20.5814m43.2397 14.3503h-3.3987l-1.133.1888-2.8323.5664-2.2642 1.133-.568.3776-1.1314 1.1345-.3776.5649-.3777.7553-.1888.5648-.1888.9441-.1888 1.1345v1.133l.3776.9456.5665.7537.7537.5665.9456.5649 1.133.1888h2.8323l.7552-.1888.565-.1873.7552-.3776.5649-.3777.7553-.5648.5649-.5665-.1873 1.6978h7.5528l2.4547-11.8956.1888-.7553.1888-.5665v-.7553l-.5649-1.6993-.1904-.3777-.5649-.3776-.3776-.3777-.5649-.3776-.7553-.1888-.7552-.3777-.9441-.1888h-.9441l-1.1345-.1888h-2.8323l-.7537.1888h-.9457l-2.2658.5665-.7538.3776-.5664.3777-.7537.3776-.5665.5665-.5649.3776-.3776.7553-.5649.5664-.3776.7553-.1904.9441h7.1767v-.5664l.3776-.7553.3777-.1888.1872-.1889h.3777l.3776-.1888h.7553l.3776.1888h.1873l.3776.3777v.944l-.3808 1.6995m-1.1329 4.7205v.5648l-.1888.5665-.1888.376-.5665.5665-.5649.1888-.3776.1889h-1.3218l-.3776-.1889-.1872-.3776-.1904-.1872v-1.1345l.1904-.1873v-.3776l.376-.3777.1888-.3776.565-.1888.3776-.1888.7552-.1873h1.8867zm8.1177 6.2294h8.1192l.5665-1.8866.3776.5649 1.133 1.1345.5664.3776 1.5106.3761h3.0227l.7552-.1888.565-.3777 2.2642-1.1313.568-.7553.568-.5664 1.1345-1.5106.3761-.9441.5665-.7553.3776-1.1329.1873-.9457.3776-1.1329.1888-1.3217.1888-1.133v-1.8882l-.3776-1.5105-.3776-.7553-.7537-1.1329-.3777-.3777-.5664-.3776-1.133-.3776-.7537-.1888-.5664-.1889h-1.5106l-.7553.1889-2.2642.5664-.5665.3776-1.5106 1.133 2.077-9.441h-8.4968l-5.4805 25.3018m10.5755-8.6841v-.5649l.1888-.5664v-.5665l.1888-.3776v-.1889l.1872-.1888v-.3776l.1904-.3777.7537-.7552.3777-.1889.1888-.1888h1.3217l.3777.1888.3776.3777v.5664l.1873.5665-.1873.7553v.7553l-.1904 1.1329-.3776.7552-.1873.9441-.1888.7553-.7537 1.133-.3776.376-1.1345.3776h-.3777l-.1872-.1872h-.3776v-.1904h-.1889l-.1888-.1872v-.1889l-.1872-.1888v-1.3217l.1872-.3777v-.5648zm15.2959-3.5875h-2.269l1.1346-5.287h2.2642l.568-2.8323 9.2522-3.0211-1.3217 5.8534h3.9636l-1.1297 5.287h-3.778l-1.3218 5.2869v1.3217l.1889.3777h.5664l.3777.1888h.7552l.1904-.1888h1.1298l-1.1298 5.098-2.269.5666h-.7537l-.7552.1888h-3.2115l-1.1298-.1888-1.8914-.7553-.7537-.5665-.376-.944-.1904-1.1346.1904-1.3201 1.6993-7.9305"/><path d="M175.7928 40.2186l-.1904.5665-.3776.376-.1873.3777-.7552.3776-.3777.1888h-1.3217l-.3777-.1888-.376-.1888-.3777-.376v-.3777l-.1888-.3776v-.7553l.3777-1.133h12.0844l.3777-1.1329.1888-1.1345v-3.0195l-.1888-.944-.1889-.7554-.7537-1.5105-.5664-.5665-.5665-.3776-.7537-.5665-.9457-.1888-.7537-.3777-1.1329-.1888-1.1345-.1888h-2.2642l-1.1345.1888-1.133.1888-.944.1889-1.133.3776-.9457.3776-.9456.5665-1.509 1.133-1.3217 1.3217-.7553.944-.3777.9442-.5649.944-.1903.9442-.3761 1.1329-.1888 1.3233-.1888 1.133.1888 1.1328v.9441l.3776.9457.1873.7537.568.5665.5617.7537.565.3776.568.5665.7537.1888.7537.3776 1.8882.3761h4.154l1.1345-.1888 1.8866-.3777.7553-.1872.944-.3777.7554-.3776.5649-.3776.7552-.565.9441-.944.5665-.7553.3776-.5665.3761-.7537.1904-.7552h-7.3577m-3.3987-5.2901v-.1889l.376-1.1329 1.133-1.1329.7552-.3776h1.1345l.7537.3776.376.7553v1.6994z" clip-rule="evenodd" fill-rule="evenodd"/><path clip-rule="evenodd" fill-rule="evenodd" d="M196.7502 35.4981l.1889-.7553v-1.6993l-.1889-.3777-.5664-.5664h-.9441l-.3777.1888-.5664.3776-.3777.3777-.3776.7552-.3776.9441-.3777 1.133-.3792 1.5105-.1872 1.3218-.1889 1.1329v.944l.1889.5665.1872.3777.1904.1888.3792.1888h.9425l.3777-.1888.5664-.1888.1889-.3777.3776-.5664.376-1.133.3793-.7552h7.932l-.3792.944-.1904.7554-.7537 1.5105-.5665.7537-1.1329 1.1345-.7553.5665-1.5121.7553-1.8866.7552-2.2643.3777h-4.5332l-.9441-.1888-.7553-.1889-.9441-.3776-.7553-.1888-.5665-.5665-.7552-.3776-.5665-.7553-.3776-.5665-.3777-.7552-.3776-1.8882v-1.133l.1888-1.1313.1888-1.3233.1888-1.133.7553-1.8881 1.133-1.8882.7552-.5665 1.3233-1.3217 1.8867-1.133.9425-.3776.9456-.3776.9457-.1888 1.1298-.1889 1.1345-.1888h2.4562l1.1298.1888 1.8913.3777.7537.3776.7553.3777.7553.3776.9441.944.3776.5665.1889.7553.1888.5665.1888.7553v1.6993l-.1888.7553h-7.9305M80.2484 56.646v-.1889l-.1888-.1888v-.1888l-.1888-.3777h-.1888l-.3777-.1888h-1.1329l-.5665.1888-.5664.3777-.3777.3776-.3776.565-.5665 1.7009v1.6993l.5665 1.133.5665.1872h1.5105l.3777-.376.3776-.1889V60.8l.1888-.1888h1.3218l-.3777.3776-.1888.3776-.3776.568-.3777.1873-.5664.1888-.5665.3777h-1.8882l-.7553-.1888-.3776-.3777-.3777-.5664-.1888-.5665-.1888-.7553.1888-.7553v-.7552l.1888-.7553.7553-1.5106.5665-.7553.5664-.3792.5665-.5649.9441-.1888h1.8882l.3776.1888.3777.3777.3776.1872.1888.3792v.9441h-1.1329M84.78 58.723l-.1887.7552v.7553l.1888.7537.1888.5665.5665.5649.5664.3776.5665.1888h1.6994l.944-.1888.7553-.3776.5665-.565.3776-.5664.5665-.7537.1888-.7553.3777-.7552v-2.4547l-.7553-1.133-.5665-.3776-.5664-.1888h-1.8882l-.7553.1888-.7553.3777-1.133 1.1329-.7552 1.5106-.1888.944m1.1329 0l.1888-.7537.1889-.5664.3776-.5649.1888-.3776.3776-.3777.5665-.3776.5665-.1873h1.3217l.5665.1873.7552.7553v2.2642l-.3776 1.1345-.3776.565-.1889.3775-.5664.3777-.3777.3776-.5664.1873h-1.5106l-.5664-.1873-.1888-.3776-.3777-.3777v-.3776l-.1888-.5649.1888-.5664zm13.0286.1904l.3776.1873h.5665l.1888.3776h.1888v3.21h1.133v-3.5876l-.3777-.3776h-.1888l-.3777-.1873h.3777l.7552-.3776.1889-.1889.1888-.3776.1888-.1888.1888-.3776v-.3793l.1889-.5664-.5665-1.133h-.3776l-.3777-.1888h-.5665l-.5664-.1888h-2.8323l-1.6994 8.1193h1.133l.7552-3.7749h1.5106m-.7553-3.4003h1.8882l.3776.1873h.1888l.3777.1888.1888.1888v.9441l-.1888.1904v.1872l-.3777.3777-.3776.1888h-2.6435zm7.5528 7.1752h1.133l.7552-3.5876h2.077l.376-.1873 1.133-.3776.3776-.1888.3777-.3777.5649-1.6993-.1873-.5665-.1904-.3776-.1872-.1873-.3777-.1888-.5649-.1888-.3776-.1888h-3.2115l-1.6978 8.116m2.077-4.5316l.5665-2.6435h1.8882l.3776.1873h.1872l.3777.3776v.7553l-.3777.7537-.1872.1888-.3776.1888-.1889.1888h-2.2658zm7.932.5665l-.1904.7552v.7553l.1904.7537.1873.5665.5664.5649.5665.3776.5649.1888h1.6994l.944-.1888.7553-.3776.565-.565.3776-.5664.5664-.7537.192-.7553.3776-.7552v-2.4547l-.7553-1.133-.5664-.3776-.5665-.1888h-1.8882l-.7553.1888-.7537.3777-1.1329 1.1329-.7553 1.5106-.1888.944m1.1298 0l.1904-.7537.3776-1.1329.7537-.7552.5665-.3777.5649-.1872h1.3217l.5665.1872.7537.7553v2.2643l-.3777 1.1344-.376.565-.1888.3776-.565.3776-.3776.3777-.5664.1872h-1.509l-.565-.1872-.1903-.3777-.3776-.3776-.1873-.3777v-.5649l.1873-.5664v-.568zm13.0317.1904l.376.1873h.5665l.1873.3776h.1904v3.21h1.1329v-3.5876l-.3776-.3776h-.1889l-.3776-.1873h.3776l.7553-.3776.1873-.1889.1903-.3776.1873-.1888.1904-.3776v-.3793l.1872-.5664-.5649-1.133h-.3776l-.3776-.1888h-.565l-.568-.1888h-2.8307l-1.6993 8.1193h1.1329l.7537-3.7749h1.5121m-.7569-3.4003h1.6994l.565.1873h.1903l.376.1888.1889.1888v.9441l-.1888.1904v.1872l-.1888.1889-.3777.1888-.1872.1888h-2.6435zm7.7417 7.1752l1.3217-2.077h3.7764l.3776 2.077h1.133l-1.5106-8.1193h-1.1345l-5.0981 8.1193h1.1345m4.3428-6.9864l.5665 3.9668h-3.0211zm8.6842-.1888h-2.642l.1904-.944h6.4183l-.1888.944h-2.6434l-1.5106 7.1752h-1.133l1.509-7.1752m6.2327 7.1752l1.6994-8.1193h1.1329l-1.6994 8.1193h-1.133m6.42-3.9652l-.1889.7552v.7553l.1889.7537.1872.5665.3776.5649.5665.3776.7537.1888h1.6994l.7553-.1888.7552-.3776 1.1314-1.133.7553-1.5105.1888-.7553.1888-.944v-.7554l-.1888-.7537-.1888-.5664-.3777-.565-.5617-.3776-.7553-.1888h-1.6994l-.944.1888-.565.3777-1.1344 1.1329-.7553 1.5106-.1888.944m1.1329 0l.1888-.7537.3776-1.1329.7537-.7552.5665-.3777.5649-.1872h1.3217l.5665.1872.3776.3777.376.7552v1.133l-.1872.7537-.5664 1.6993-.7537.7553-.5665.3777-.5664.1872h-1.3218l-.5649-.1872-.3776-.3777-.3776-.7553v-1.1329zm17.9362-4.1539l-1.6993 8.1192h-1.509l-2.4546-6.7975-1.5106 6.7975h-.9457l1.6994-8.1193h1.5121l2.4547 6.6087 1.3233-6.6087h1.1298"/><path clip-rule="evenodd" fill="#ed2027" fill-rule="evenodd" d="M25.113 61.9345l1.5106.1872 1.3217.1888 1.5106.1889h2.8323l1.3217-.1889h1.3218l1.3217-.1888 1.5106-.3792 1.1329-.376 1.3217-.3777 2.6435-1.133 2.2658-1.1328 1.3218-.7553.944-.7537 1.133-.7569 1.133-.944 2.8322-2.8324.7553-1.1329.944-1.133 1.5106-2.2657.5665-1.133 1.133-2.6434.3776-1.3202.5664-1.5121.1888-1.3218.3777-1.5105.1888-1.3218.1888-1.5105v-2.6435l-.1888-1.5106-.5665-3.9652-.3776-1.3217-.5665-1.3218-.3776-1.3217-.5665-1.3217-.5664-1.133-.7553-1.1329-.5665-1.1329-.944-1.133-1.5106-2.2658-1.8882-1.8882-1.133-.944-.944-.7553-1.133-.9441-1.1329-.7553-1.3217-.5665-1.133-.7552-2.6434-1.133-2.6435-.7552-1.5105-.3777L38.3304 0l1.6994.3776 1.6994.5665 1.6994.5665 1.6993.7552 1.5106.5665 1.5106.9441 1.5105.7553 1.5106.944 1.3217 1.133 1.3217.944 1.3218 1.133 1.133 1.3218 1.1328 1.1329 1.133 1.3217.944 1.3217.9441 1.5106.9441 1.3217 2.2659 4.5317.5664 1.6994.5665 1.5106 1.133 5.098.1887 1.6995v1.6993l.1889 1.6994-.1889 1.8867-.3776 3.4003-.1888 1.8882-.5665 1.6994-.3776 1.6993-.5665 1.6994-.7553 1.5106-.7552 1.6994-.7553 1.5105-.9441 1.5106-.9441 1.3217-.9441 1.5106-1.133 1.3233-1.1329 1.1313-1.1329 1.3218-2.6434 2.2674-2.6435 1.8866-1.5106.9425-3.0211 1.5122-1.5106.5664-1.5105.7553-1.6994.3776-1.6994.5665-1.6994.3776-1.5105.1889-1.8882.1888-1.6994.1872h-3.3987L27.19 69.297l-1.6994-.1888-1.8882-.3777 1.5105-6.796"/><path clip-rule="evenodd" fill="#ed2027" fill-rule="evenodd" d="M.7553 27.9453L.3776 29.456l-.1888 1.5105L0 32.6658v3.0211l.5665 4.5317.3776 1.5106.3776 1.3233.3777 1.509.5664 1.3201.5665 1.5122.7553 1.3217.5664 1.133.9441 1.3217.7553 1.3233 2.8323 3.3972 1.133.944 1.1329 1.133 1.1329.9457 1.1329.7537 1.3217.944 2.6435 1.5106 1.3217.5665 3.0212 1.1329 4.5316 1.133 1.6994.1887 1.5106.1889h3.021l4.5318-.568 3.021-.7538 1.3218-.376 1.5106-.568 1.3217-.5665 1.3218-.7569 1.3217-.5649 1.3217-.944 1.133-.7554 3.3987-2.8323 1.133-1.1329 2.8322-3.3987 3.0211-5.287.5665-1.5105.3776-1.5106.5665-1.5106.3776-1.5105.1889-1.5106.3776-1.6994V31.533l-.3776-3.0211-.7553-3.0211-.5665-1.3218-.3776-1.3217-.7553-1.5106-.5665-1.3217-.7552-1.3217-.7553-1.133-.9441-1.3217-.7553-1.133-.944-1.1328-3.21-3.21-1.133-.944-1.3217-.9442-3.9652-2.2658-1.3217-.5665-3.0212-1.1329-1.5105-.3776-1.5106-.3777-.5664 2.6435 1.5105.3777 2.6435.7552 2.6435 1.133 1.1329.7552 1.3217.5665 1.133.7553 1.1329.944.944.7553 1.133.9441 1.8882 1.8882 1.5105 2.2659.9441 1.1329.5665 1.133.7553 1.1328.5664 1.133.5665 1.3217.3776 1.3217.5665 1.3218.3776 1.3217.5665 3.9652.1888 1.5106v2.6435l-.1888 1.5105-.1888 1.3218-.3777 1.5105-.1888 1.3218-.5664 1.512-.3777 1.3203-1.1329 2.6434-.5665 1.133-1.5105 2.2658-.9441 1.133-.7553 1.1328-2.8323 2.8323-1.1329.9441-1.133.7569-.944.7537-1.3218.7553-2.2658 1.1329-2.6435 1.1329-1.3217.3776-1.133.3761-1.5105.3792-1.3217.1888h-1.3218l-1.3217.1889h-2.8323l-1.5106-.1889-1.3217-.1888-1.5106-.1872-1.3217-.3792-1.5106-.3777-1.3217-.5664-1.3217-.3777-1.3218-.5664-4.5316-3.0212-1.133-.944-.944-.7553-.9442-.9441-.944-1.133-.9442-.944-2.2658-3.3988-.5665-1.133-.7552-1.3217-.5665-1.1329-1.5106-5.287-.3776-2.6434V31.344l.1888-1.3217.3777-1.5106-2.6435-.5665"/><path clip-rule="evenodd" fill="#ed2027" fill-rule="evenodd" d="M26.6236 55.1354l2.077.3776h4.3429l1.8882-.3776 2.077-.3777 3.7764-1.5105 1.8882-1.133 1.5105-1.1329 1.5106-1.3217 1.5106-1.5105 1.3217-1.6994 1.133-1.6978.7552-1.8914.7553-2.0754.5664-2.077.3777-2.077.1888-2.077-.3776-4.1541-.5665-2.077-.5665-1.8882-.944-1.8882-.9442-1.6994-1.3217-1.6994-1.3217-1.5105-1.5106-1.5106-1.5106-1.133-1.8882-1.1328-1.8882-.9441-1.8882-.7553-2.077-.5665-2.2658-.3776-2.077-.1888-2.077.1888-2.077.3776-2.077.3777-3.7765 1.5105-3.3987 2.2659-1.5106 1.3217-1.3217 1.5106-1.3218 1.6993-1.1329 1.6994-.944 1.8882-.7554 1.8882-.5664 2.2659-2.6435-.7553.1888-1.133.7553-2.2658.5665-1.1329.3776-1.133.5665-.944.5664-1.133.7553-.944.5665-.9441.7552-.9441 2.4547-2.4547.944-.7553.9442-.5664.944-.7553 1.8883-1.133 1.1329-.5664 1.133-.3776.944-.3777 2.2659-.7552 2.2658-.3777 1.3217-.1888H33.61l1.133.1888 1.3217.1888 4.5317 1.5106 2.2658 1.133.9441.5664.9441.7552.9441.5665.9441.7553 2.4547 2.4546 1.5105 1.8882 1.6994 2.8323.5665 1.133.3776.944.5664 1.133.1889 1.1329.3776 1.133.7553 4.5316v1.3217l-.1888 1.133v1.1329l-.1889 1.3201-.1888 1.1345-.3776 1.3218-1.133 3.3987-.5664.9441-1.133 2.2659-.5664.944-.7552.9442-.7553.7552-.7553.9441-.7553.7553-1.8882 1.5106-.7553.7552-.944.7553-1.133.5665-.944.5664-1.133.3777-.9441.5664-1.133.3761-1.1328.3792-1.133.3777-3.3987.5664h-3.5876l-1.1329-.1888h-1.3217l-1.133-.3776.5665-2.6435"/><path clip-rule="evenodd" fill="#ed2027" fill-rule="evenodd" d="M47.7714 37.9528l.1888-1.6994.1889-1.8882-.1889-1.5106-.1888-1.6993-.3776-1.6994-.5665-1.5106-.7553-1.5105-.7552-1.3218-.9441-1.3217-1.133-1.3217-1.1329-1.133-1.3217-.944-1.5106-.9442-1.5105-.7552-1.5106-.5665-3.3987-.7553-1.6994-.1888-3.3988.3776-1.6994.3777-1.5105.5664-1.5106.7553-1.3217.7553-1.3218.9441-1.3217 1.133-1.133 1.1328-.944 1.3218-.9441 1.5105-.7553 1.5106-.5665 1.5106-.3776 1.6993-6.7975-1.5105.1888-1.133.7553-2.2658.5665-1.1329.3776-1.133.5665-.944.5664-1.133.7553-.944.5665-.9441.7552-.9441 2.4547-2.4547.944-.7553.9442-.5664.944-.7553 1.8883-1.133 1.1329-.5664 1.133-.3776.944-.3777 2.2659-.7552 2.2658-.3777 1.3217-.1888H33.61l1.133.1888 1.3217.1888 4.5317 1.5106 2.2658 1.133.9441.5664.9441.7552.9441.5665.9441.7553 2.4547 2.4546 1.5105 1.8882 1.6994 2.8323.5665 1.133.3776.944.5664 1.133.1889 1.1329.3776 1.133.7553 4.5316v1.3217l-.1888 1.133v1.1329l-.1889 1.3201-.1888 1.1345-6.7975-1.3217"/><path clip-rule="evenodd" fill="#ed2027" fill-rule="evenodd" d="M28.8894 44.1838l-.944-.1888-1.8883-.7553-.944-.5664-.7553-.5665-.5665-.7553-.7553-.7552-.5664-.7553-.3777-.7553-.7553-1.8882-.3776-1.8882v-2.077l.3776-1.8882.7553-1.8882.5665-.9441.5664-.7553.7553-.7553 2.2659-1.6993.944-.3777.9442-.1888.944-.3776h.9442l.944-.1889 1.133.1889.944.1888 1.133.1888 1.8882.7553 1.5105 1.1329.7553.7553 1.6994 2.2658.7553 1.8882.3776 1.8882v.9441l-.1888.9441v1.1314l-.1888.568-.1888.3776-.1889.5665-.1888.3792-.1888.5649-.3776.7553-.3777.3792-.3776.5649-.1888.3776-.3777.3776-.3776.1889-.7553.7552-.3776.1889-.3777.376 1.5106 2.2674.5664-.376.5665-.1904.3776-.5665.5665-.3776.3776-.3777.3777-.5664.3776-.3777 1.133-1.6993.1888-.565.3776-.568.3776-1.1313.1889-.7569.1888-.5664.3776-2.6435-.1888-1.133-.1888-1.3217-.1888-1.1329-.3777-1.3217-.5664-1.133-.5665-.944-.7553-1.133-1.6994-1.6993-1.1329-.7553-.944-.7553-1.133-.5664-1.3217-.3777-1.133-.3776-1.3217-.1888h-2.6435l-1.3217.1888-1.133.1888-1.1328.3776-1.133.5665-1.1329.7553-1.8882 1.5105-.944.9441-.7554.9441-.5664.9441-.7553 1.3218-.3776 1.1329-.3777 1.3217-.1888 1.3218v2.4546l.1888 1.3218.7553 2.2658 1.133 2.2658 1.5105 1.8882.944.9441.9442.7553 1.1329.7553 1.133.5665 1.1328.3776 1.3218.3776.5664-2.8323"/><path clip-rule="evenodd" fill="#ed2027" fill-rule="evenodd" d="M29.8335 40.2186l-1.1329-.3776-.5664-.3777-.5665-.1888-.7553-.7553-.5664-.3792-.1889-.5649-.3776-.3776-.5665-1.6994v-2.4546l.3777-1.133.3776-.3776.1888-.5665.3777-.5664.3776-.3776.5665-.3777.3776-.3776.5665-.1888.5664-.1889.3777-.1888.5664-.1888H30.4l.5665-.1888.7552.1888h.5665l1.5106-6.7975-1.3218-.1888h-2.6435l-1.3217.1888-1.133.1888-1.1328.3776-1.133.5665-1.1329.7553-1.8882 1.5105-.944.9441-.7554.9441-.5664.9441-.7553 1.3218-.3776 1.1329-.3777 1.3217-.1888 1.3218v2.4546l.1888 1.3218.7553 2.2658 1.133 2.2658 1.5105 1.8882.944.9441.9442.7553 1.1329.7553 1.133.5665 1.1328.3776 1.3218.3776 1.5105-6.7975"/></svg>